<svg id="visual" viewBox="0 0 1536 730" width="1536" height="730" xmlns="http://www.w3.org/2000/svg" xmlns:xlink="http://www.w3.org/1999/xlink" version="1.1"><rect x="0" y="0" width="1536" height="730" fill="#002233"></rect><path d="M0 577L36.5 586.7C73 596.3 146 615.7 219.2 620.5C292.3 625.3 365.7 615.7 438.8 594C512 572.3 585 538.7 658.2 530.2C731.3 521.7 804.7 538.3 877.8 556.3C951 574.3 1024 593.7 1097.2 582.8C1170.3 572 1243.7 531 1316.8 506.3C1390 481.7 1463 473.3 1499.5 469.2L1536 465L1536 731L1499.5 731C1463 731 1390 731 1316.8 731C1243.7 731 1170.3 731 1097.2 731C1024 731 951 731 877.8 731C804.7 731 731.3 731 658.2 731C585 731 512 731 438.8 731C365.7 731 292.3 731 219.2 731C146 731 73 731 36.5 731L0 731Z" fill="#0066FF" stroke-linecap="round" stroke-linejoin="miter"></path></svg>