<svg id="visual" viewBox="0 0 1536 695" width="1536" height="695" xmlns="http://www.w3.org/2000/svg" xmlns:xlink="http://www.w3.org/1999/xlink" version="1.1"><rect x="0" y="0" width="1536" height="695" fill="#000000"></rect><defs><linearGradient id="grad1_0" x1="54.8%" y1="0%" x2="100%" y2="100%"><stop offset="5.798561151079138%" stop-color="#000000" stop-opacity="1"></stop><stop offset="94.20143884892087%" stop-color="#000000" stop-opacity="1"></stop></linearGradient></defs><defs><linearGradient id="grad2_0" x1="0%" y1="0%" x2="45.2%" y2="100%"><stop offset="5.798561151079138%" stop-color="#000000" stop-opacity="1"></stop><stop offset="94.20143884892087%" stop-color="#000000" stop-opacity="1"></stop></linearGradient></defs><g transform="translate(1536, 0)"><path d="M0 521.3C-98.7 512 -197.5 502.7 -260.6 451.4C-323.8 400.1 -351.3 306.7 -388.8 224.5C-426.4 142.3 -473.8 71.1 -521.2 0L0 0Z" fill="#d21134"></path></g><g transform="translate(0, 695)"><path d="M0 -521.2C70.1 -472 140.1 -422.7 222.5 -385.4C304.9 -348.1 399.6 -322.9 451.4 -260.6C503.3 -198.4 512.3 -99.2 521.3 0L0 0Z" fill="#d21134"></path></g></svg>